<svg xmlns="http://www.w3.org/2000/svg" viewBox="0 0 595.28 137.333">
    <path fill="#2e3192" d="m409.05 68.774c0-11.54-4.5-22.39-12.66-30.55-8.16-8.17-19.01-12.66-30.55-12.66-11.54 0-22.4 4.49-30.56 12.66-8.16 8.16-12.65 19.01-12.65 30.55 0 11.54 4.49 22.39 12.65 30.55 8.16 8.17 19.02 12.66 30.56 12.66 17.47 0 33.11-10.49 39.82-26.41h-16.41c-5.32 7.4-13.97 12.01-23.41 12.01-13.4 0-24.69-9.2-27.9-21.61h71.11v-7.2m-71.11-7.2c3.21-12.41 14.5-21.61 27.9-21.61 13.39 0 24.69 9.2 27.89 21.61h-55.79"/>
    <path fill="#2e3192" d="m286.98 111.98c-11.542 0-22.393-4.495-30.554-12.656-8.161-8.161-12.656-19.01-12.656-30.554s4.495-22.393 12.656-30.554c8.161-8.161 19.01-12.656 30.554-12.656 11.542 0 22.393 4.495 30.554 12.656l5.092 5.092-10.185 10.185-5.092-5.092c-5.441-5.441-12.675-8.437-20.369-8.437-15.884 0-28.807 12.923-28.807 28.807s12.923 28.807 28.807 28.807c7.694 0 14.928-2.996 20.369-8.437l5.092-5.092 10.185 10.185-5.092 5.092c-8.162 8.16-19.01 12.654-30.554 12.654"/>
    <path fill="#00aeef" d="m32.27 111.55h-14.404v-49.98c0-9.618 3.746-18.661 10.547-25.462s15.843-10.547 25.462-10.547h5.761v14.403h-5.761c-11.913 0-21.605 9.692-21.605 21.605v49.981"/>
    <path fill="#2e3192" d="m486.99 38.22c-8.16-8.16-19.02-12.66-30.56-12.66-11.54 0-22.39 4.5-30.55 12.66-8.16 8.16-12.66 19.01-12.66 30.55 0 11.54 4.5 22.39 12.66 30.55 8.16 8.17 19.01 12.66 30.55 12.66 10.73 0 20.88-3.88 28.81-11v10.57h14.4v-42.78c0-11.54-4.49-22.39-12.65-30.55m-30.56 59.36c-15.88 0-28.8-12.93-28.8-28.81s12.92-28.81 28.8-28.81c15.89 0 28.81 12.93 28.81 28.81s-12.92 28.81-28.81 28.81"/>
    <path fill="#2e3192" d="m577.42 111.55h-14.403v-49.979c0-11.913-9.692-21.605-21.605-21.605-11.913 0-21.605 9.692-21.605 21.605v49.979h-14.404v-49.979c0-9.618 3.746-18.661 10.547-25.462s15.843-10.547 25.462-10.547c9.618 0 18.661 3.746 25.462 10.547 6.801 6.801 10.547 15.843 10.547 25.462v49.979"/>
    <path fill="url(#0)" d="m226.79 38.01c-8.161-8.161-19.01-12.656-30.554-12.656-15.786 0-30.08 7.12-41.33 20.588-2.342 2.801-4.318 5.604-5.953 8.19-8.556-11.831-24.572-28.778-46.11-28.778-11.541 0-22.393 4.495-30.554 12.656-8.161 8.161-12.656 19.01-12.656 30.554s4.495 22.393 12.656 30.554c8.161 8.161 19.01 12.656 30.554 12.656 15.786 0 30.08-7.12 41.33-20.588 2.342-2.801 4.318-5.604 5.953-8.19 8.556 11.831 24.572 28.778 46.11 28.778 11.541 0 22.393-4.495 30.554-12.656 8.161-8.161 12.656-19.01 12.656-30.554s-4.495-22.393-12.656-30.554m-93.93 44.25c-8.499 10.02-18.597 15.11-30.02 15.11-15.884 0-28.807-12.923-28.807-28.807 0-15.884 12.923-28.807 28.807-28.807 19.287 0 33.907 21.334 38.644 29.21-1.511 3.11-4.349 8.252-8.628 13.302m63.38 15.11c-19.287 0-33.907-21.334-38.644-29.2 1.511-3.11 4.348-8.252 8.628-13.301 8.499-10.02 18.597-15.11 30.02-15.11 15.884 0 28.807 12.923 28.807 28.807 0 15.883-12.923 28.805-28.807 28.805"/>
    <path opacity=".3" fill="url(#1)" d="m169.08 51.731c-.974.982-1.927 2.025-2.862 3.127-4.279 5.05-7.117 10.192-8.628 13.301l-8.641-14.03c1.635-2.585 3.611-5.388 5.953-8.19 2.055-2.46 4.212-4.708 6.461-6.739l7.717 12.534"/>
    <path opacity=".3" fill="url(#2)" d="m130 85.39c.974-.982 1.927-2.025 2.862-3.127 4.279-5.05 7.117-10.192 8.628-13.301l8.641 14.03c-1.635 2.585-3.611 5.388-5.953 8.19-2.055 2.46-4.212 4.708-6.461 6.739l-7.717-12.534"/>
</svg>